#!OML:ASF F:\VICON\USERDATA\INSTALL\rory3\rory3.ASF
:FULLY-SPECIFIED
:DEGREES
4068
root -0.753689 15.8128 -2.33191 -0.271354 -32.637 -1.33734
lowerback 15.833 3.24679 6.95436
upperback 3.45067 5.777 8.4739
thorax -5.38244 2.71341 3.97025
lowerneck -25.3511 -0.396381 -9.08791
upperneck 21.0628 2.75164 0.59499
head 10.8813 0.56073 2.14399
rclavicle -3.18055e-014 -5.725e-014
rhumerus -36.8588 -39.8299 -53.7118
rradius 67.4937
rwrist -65.1615
rhand 3.53567 19.4336
rfingers 7.12502
rthumb 28.9723 -8.33487
lclavicle -3.18055e-014 -5.725e-014
lhumerus -7.5759 -10.185 90.3745
lradius 125.882
lwrist 17.0418
lhand -17.3822 10.2559
lfingers 7.12502
lthumb 8.86658 40.0496
rfemur -0.629278 -6.73713 11.4965
rtibia 62.7155
rfoot -26.6925 -5.67939
rtoes -21.1836
lfemur -47.1019 -17.241 -6.93822
ltibia 45.2774
lfoot 4.93104 -18.6868
ltoes -17.3617
4069
root -0.780166 15.9685 -2.31088 -0.0971207 -30.7791 -2.30433
lowerback 15.2518 3.62232 8.12995
upperback 3.45702 6.37316 8.24715
thorax -4.91481 3.00213 2.99615
lowerneck -25.406 -1.29364 -9.37117
upperneck 21.2368 1.40709 1.41333
head 11.0151 0.0298946 2.27757
rclavicle -2.42517e-014 -5.40694e-014
rhumerus -29.6022 -40.2045 -57.1138
rradius 68.1533
rwrist -62.6762
rhand 5.87297 21.4689
rfingers 7.12502
rthumb 31.2023 -5.89382
lclavicle -2.42517e-014 -5.40694e-014
lhumerus -6.56922 -13.8386 90.6315
lradius 124.824
lwrist 15.8547
lhand -17.2821 10.5932
lfingers 7.12502
lthumb 8.96315 40.3828
rfemur 0.0806325 -8.28565 13.0276
rtibia 61.4978
rfoot -24.7838 -8.97291
rtoes -19.9568
lfemur -45.7755 -17.4197 -6.85044
ltibia 42.8848
lfoot 8.40259 -19.1153
ltoes -11.5595
4070
root -0.788687 16.1326 -2.29753 -0.138696 -29.2578 -2.60121
lowerback 15.2789 4.09295 8.61741
upperback 3.04801 7.12946 8.10579
thorax -5.29251 3.35173 2.42475
lowerneck -24.8037 -2.01594 -9.97055
upperneck 21.4141 0.426731 1.9126
head 11.03 -0.40418 2.39934
rclavicle -1.23246e-014 -1.27222e-014
rhumerus -22.2896 -39.9203 -59.9812
rradius 69.4071
rwrist -61.9636
rhand 5.68354 20.6322
rfingers 7.12502
rthumb 31.0217 -6.76511
lclavicle -1.23246e-014 -1.27222e-014
lhumerus -6.60713 -17.1097 91.0148
lradius 124.079
lwrist 14.8145
lhand -17.0284 10.4337
lfingers 7.12502
lthumb 9.20798 40.2126
rfemur 0.263039 -9.7196 13.7319
rtibia 60.7484
rfoot -23.2818 -10.8343
rtoes -13.9353
lfemur -44.4028 -17.3488 -7.34865
ltibia 40.2267
lfoot 10.6606 -20.5677
ltoes -12.9928
4071
root -0.784195 16.3058 -2.28868 -0.0896356 -28.1025 -2.40405
lowerback 14.9195 4.5545 9.18717
upperback 2.80378 7.78114 7.52866
thorax -5.18981 3.66168 1.40681
lowerneck -24.3608 -2.54347 -10.1649
upperneck 21.3453 -0.371802 2.21464
head 10.9772 -0.740427 2.41082
rclavicle 5.28767e-014 -5.40694e-014
rhumerus -14.0401 -39.5576 -63.7309
rradius 70.3455
rwrist -60.605
rhand 4.9516 19.2032
rfingers 7.12502
rthumb 30.3238 -8.32493
lclavicle 5.28767e-014 -5.40694e-014
lhumerus -6.35751 -20.3118 90.4382
lradius 123.665
lwrist 14.4147
lhand -16.7147 9.97274
lfingers 7.12502
lthumb 9.51058 39.7381
rfemur -0.372177 -11.0879 13.874
rtibia 60.3739
rfoot -21.4733 -12.7735
rtoes -7.51843
lfemur -43.1729 -17.0479 -8.14182
ltibia 37.2251
lfoot 13.6494 -21.5389
ltoes -13.8861
4072
root -0.77586 16.4825 -2.2829 -0.109201 -27.3067 -1.99501
lowerback 14.7218 5.00737 9.54045
upperback 2.64072 8.39843 6.99763
thorax -5.10184 3.95798 0.565136
lowerneck -24.1495 -2.90619 -10.4016
upperneck 21.4124 -0.833193 2.2836
head 10.9991 -0.962828 2.40016
rclavicle -4.29375e-014 1.27222e-014
rhumerus -5.76513 -37.2342 -67.1513
rradius 70.9217
rwrist -59.7459
rhand 4.98038 19.0916
rfingers 7.12502
rthumb 30.3513 -8.43153
lclavicle -4.29375e-014 1.27222e-014
lhumerus -6.31439 -22.9649 89.7639
lradius 123.744
lwrist 14.2628
lhand -16.2695 9.6338
lfingers 7.12502
lthumb 9.94014 39.3791
rfemur -1.34458 -12.1841 13.8174
rtibia 60.2804
rfoot -20.0887 -14.8378
rtoes -1.03469
lfemur -41.7466 -16.5679 -9.03243
ltibia 33.8664
lfoot 17.8104 -21.3659
ltoes -11.3804
4073
root -0.775833 16.6626 -2.28309 -0.102587 -26.8706 -1.22701
lowerback 14.4166 5.37993 9.81268
upperback 2.5804 8.84986 6.16818
thorax -4.79736 4.18639 -0.488465
lowerneck -24.1486 -3.08552 -10.4865
upperneck 21.4327 -1.06568 2.34106
head 11.0244 -1.06797 2.39736
rclavicle -2.38542e-015 -8.26944e-014
rhumerus 2.49891 -33.89 -70.6603
rradius 71.1194
rwrist -58.122
rhand 6.88301 20.7084
rfingers 7.12502
rthumb 32.1643 -6.46449
lclavicle -2.38542e-015 -8.26944e-014
lhumerus -6.36365 -24.9223 88.554
lradius 124.292
lwrist 14.2877
lhand -15.3488 9.17183
lfingers 7.12502
lthumb 10.8284 38.8727
rfemur -2.75507 -12.9422 13.5749
rtibia 60.3107
rfoot -20.7083 -15.9152
rtoes 1.62226
lfemur -40.3349 -15.926 -10.1087
ltibia 30.2303
lfoot 22.2792 -20.1552
ltoes -7.89814
4074
root -0.791202 16.8368 -2.29207 0.0187169 -26.6846 -0.178279
lowerback 14.0853 5.81753 9.53429
upperback 2.44635 9.31879 5.3813
thorax -4.63442 4.42812 -1.20017
lowerneck -24.219 -3.17481 -10.5953
upperneck 21.5269 -1.10735 2.22586
head 11.0778 -1.11352 2.3662
rclavicle -6.24184e-014 -6.99722e-014
rhumerus 10.0591 -29.1663 -73.0589
rradius 71.7385
rwrist -57.0707
rhand 4.25697 20.0677
rfingers 7.12502
rthumb 29.661 -7.58043
lclavicle -6.24184e-014 -6.99722e-014
lhumerus -6.74815 -26.316 87.6181
lradius 125.096
lwrist 14.1475
lhand -14.2924 8.54152
lfingers 7.12502
lthumb 11.8472 38.1864
rfemur -4.60636 -13.3084 13.2944
rtibia 60.3152
rfoot -21.9379 -16.0918
rtoes 6.71667
lfemur -39.0132 -14.9696 -11.3935
ltibia 26.4466
lfoot 26.0316 -19.3014
ltoes -8.9977
4075
root -0.807299 16.9976 -2.30686 0.102473 -26.5325 0.804755
lowerback 14.0805 6.13736 9.29888
upperback 2.25832 9.69027 4.63372
thorax -4.70793 4.60691 -1.91491
lowerneck -24.1967 -3.17331 -10.7043
upperneck 21.5424 -1.02642 2.07917
head 11.076 -1.10553 2.34279
rclavicle -1.1609e-013 -5.40694e-014
rhumerus 15.9605 -22.8714 -73.2941
rradius 70.8155
rwrist -55.7919
rhand 4.91666 26.5651
rfingers 7.12502
rthumb 30.2905 -0.969166
lclavicle -1.1609e-013 -5.40694e-014
lhumerus -7.39405 -27.3371 86.8687
lradius 126.198
lwrist 13.6246
lhand -14.2801 8.80999
lfingers 7.12502
lthumb 11.859 38.4542
rfemur -6.50496 -13.3085 13.1821
rtibia 60.1807
rfoot -22.8516 -15.6633
rtoes 13.0152
lfemur -37.6704 -13.7604 -12.7166
ltibia 22.8058
lfoot 29.1256 -18.7674
ltoes -15.1092
4076
root -0.823891 17.1521 -2.31334 0.0978425 -26.2056 1.85051
lowerback 14.1332 6.27598 9.17607
upperback 2.10223 9.83523 3.79328
thorax -4.75777 4.67412 -2.75508
lowerneck -24.2849 -3.10742 -10.6329
upperneck 21.5262 -0.881282 1.83115
head 11.0759 -1.06524 2.26273
rclavicle -7.4743e-014 -1.90833e-014
rhumerus 23.4617 -18.4755 -74.858
rradius 70.9392
rwrist -52.6496
rhand 6.27456 21.8592
rfingers 7.12502
rthumb 31.5849 -5.42912
lclavicle -7.4743e-014 -1.90833e-014
lhumerus -8.01826 -28.071 86.0891
lradius 127.505
lwrist 12.9164
lhand -14.151 9.48366
lfingers 7.12502
lthumb 11.9835 39.1206
rfemur -8.30113 -13.2694 13.0049
rtibia 59.8364
rfoot -22.7603 -15.335
rtoes 14.7896
lfemur -36.6376 -12.6905 -14.0933
ltibia 19.832
lfoot 31.702 -16.7303
ltoes -20.1063
4077
root -0.850016 17.2911 -2.31142 0.1359 -25.6156 2.71932
lowerback 14.0198 6.30266 9.09801
upperback 2.0382 9.81581 3.07917
thorax -4.64878 4.67191 -3.43641
lowerneck -24.6489 -3.06033 -10.6029
upperneck 21.6847 -0.726902 1.65533
head 11.1923 -1.02072 2.21887
rclavicle 2.82274e-014 4.92986e-014
rhumerus 28.5285 -12.9023 -74.0681
rradius 71.0935
rwrist -49.8017
rhand 6.56389 21.4042
rfingers 7.12502
rthumb 31.8605 -5.82967
lclavicle 2.82274e-014 4.92986e-014
lhumerus -8.46167 -28.4277 85.5199
lradius 128.676
lwrist 12.6522
lhand -14.1076 9.28387
lfingers 7.12502
lthumb 12.0253 38.9184
rfemur -10.0384 -13.4429 13.0242
rtibia 59.4114
rfoot -22.2952 -15.4093
rtoes 9.68755
lfemur -35.8907 -11.7564 -15.3347
ltibia 17.9677
lfoot 32.4308 -14.8577
ltoes -22.4309
4078
root -0.88265 17.4066 -2.31099 0.345178 -24.7041 2.99297
lowerback 14.1421 6.16982 9.45682
upperback 1.85868 9.69594 2.51888
thorax -4.7619 4.59559 -4.21687
lowerneck -24.9485 -2.99264 -10.3548
upperneck 21.8861 -0.637367 1.49006
head 11.3153 -0.987429 2.13386
rclavicle 1.13904e-013 -2.8625e-014
rhumerus 33.3415 -7.66252 -72.6801
rradius 71.1046
rwrist -46.6439
rhand 6.78579 22.2358
rfingers 7.12502
rthumb 32.0718 -4.95575
lclavicle 1.13904e-013 -2.8625e-014
lhumerus -8.84582 -28.5467 85.0591
lradius 129.65
lwrist 12.9051
lhand -14.1549 8.51373
lfingers 7.12502
lthumb 11.9797 38.1509
rfemur -11.6955 -13.6263 13.6937
rtibia 58.9629
rfoot -22.2282 -15.4681
rtoes 3.06512
lfemur -35.418 -10.7874 -16.1414
ltibia 17.594
lfoot 31.0037 -14.9947
ltoes -23.1212
